<svg xmlns="http://www.w3.org/2000/svg" viewBox="0 0 1617.286 686.931">
  <defs>
    <style>
      .cls-1 {
        fill: #ea4235;
      }

      .cls-2 {
        fill: #fabb04;
      }

      .cls-3 {
        fill: #4286f5;
      }

      .cls-4 {
        fill: #109d58;
      }

      .cls-5 {
        fill: #292929;
      }
    </style>
  </defs>
  <title>dsckiit2019_colour_vertical</title>
  <g id="Layer_2" data-name="Layer 2">
    <g id="Layer_1-2" data-name="Layer 1">
      <g id="colour_vertical">
        <g id="Group_8" data-name="Group 8">
          <path id="path0" class="cls-1" d="M700,2.008a63.766,63.766,0,0,0-9.818,3.658C682.955,9.277,489.9,118.5,490.2,118.8a29.4,29.4,0,0,0,5.957-1.26c18.776-5.069,26.789-2.263,80.119,28.05,32.52,18.481,43.535,24.279,44.883,23.617,24.364-11.946,125.371-71.15,131.163-76.881,38.979-38.55.7-104.6-52.345-90.32"/>
          <path id="path0-2" class="cls-2" d="M930.033,185.732c-72.346,43.53-74.7,45.463-80.131,65.9-12.054,45.291,35.216,83.557,77.03,62.368,5.559-2.816,198.15-118.3,197.288-118.3a74.8,74.8,0,0,0-7.233,2.821c-5.979,2.541-7.822,2.816-18.517,2.774-15.545-.067-15.246.061-64.91-28.169-22.1-12.556-40.832-23.049-41.629-23.3s-28.65,15.909-61.9,35.914"/>
          <path id="path1" class="cls-3" d="M524.574,101.292c-10.695,2.108-13.837,2.99-18.931,5.311a30.608,30.608,0,0,0-6.9,3.942,77.824,77.824,0,0,1-6,5.5c-2.732,2.324-4.016,3.577-10.354,12.613-.475.351-2.921,5.441-4.753,16.342a55.706,55.706,0,0,0,5.519,35.031,18.73,18.73,0,0,1,1.644,3.809c-.129,1.622,15.545,16.906,16.245,15.835.118-.191,1.075.383,2.114,1.271,2.057,1.762,20.641,12.384,174.363,99.682,32.457,18.43,35.517,19.535,52.236,18.868,47.28-1.891,68.769-62.585,33.233-93.87-4.484-3.942-100.42-59.325-122.67-70.811-5.68-2.934-27.306-15-48.05-26.82s-40.083-22.312-42.977-23.33c-8.474-2.99-19.221-4.454-24.707-3.374"/>
          <path id="path2" class="cls-4" d="M878.6,1.467c-32.6,8.114-48.49,45.44-32.683,76.763,5.671,11.232,11.242,15.529,45.05,34.765,16.867,9.6,41.753,23.774,55.306,31.5s27.575,15.545,31.17,17.365,23.714,13.072,44.714,25.012c46.05,26.173,45.618,25.992,60.862,26.077,35.276.206,59.549-31.019,50.747-65.271-4.469-17.379-11.906-25.2-38.177-40.124-95.959-54.52-140.906-80.069-158.615-90.18C908.836,1.317,894.694-2.542,878.6,1.467"/>
        </g>
        <g>
          <path class="cls-5" d="M142.888,612.039h9.4v.315l-21.014,24.253,22.436,31.68v.315h-8.927l-18.407-26.386-8.689,10.033V668.6h-7.269V612.039h7.269v29.15H118Z"/>
          <path class="cls-5" d="M172.592,628.629q8.058,0,12.719,4.3t4.661,11.811V668.6H183.02V663.23H182.7q-4.5,6.636-12.008,6.637a15.607,15.607,0,0,1-10.7-3.793,12.106,12.106,0,0,1-4.306-9.479,11.512,11.512,0,0,1,4.542-9.56q4.542-3.554,12.127-3.555a21.462,21.462,0,0,1,10.665,2.37v-1.659a8.275,8.275,0,0,0-3-6.438,10.3,10.3,0,0,0-7.031-2.646,11.137,11.137,0,0,0-9.638,5.136l-6.4-4.029Q162.242,628.628,172.592,628.629Zm-9.4,28.123a5.8,5.8,0,0,0,2.409,4.74,8.867,8.867,0,0,0,5.648,1.9,11.587,11.587,0,0,0,8.177-3.4,10.64,10.64,0,0,0,3.595-7.979q-3.4-2.685-9.48-2.687a12.311,12.311,0,0,0-7.386,2.133A6.335,6.335,0,0,0,163.19,656.752Z"/>
          <path class="cls-5" d="M205.85,612.039V668.6h-7.268V612.039Z"/>
          <path class="cls-5" d="M224.493,616.541a5.126,5.126,0,1,1-1.5-3.633A4.953,4.953,0,0,1,224.493,616.541Zm-1.5,13.352V668.6h-7.268v-38.71Z"/>
          <path class="cls-5" d="M232.866,629.893h6.952v5.372h.316a12.927,12.927,0,0,1,5.095-4.74,14.608,14.608,0,0,1,7.149-1.9q7.11,0,10.942,4.068t3.831,11.573V668.6h-7.268V644.744q-.237-9.48-9.56-9.479a9.084,9.084,0,0,0-7.268,3.516,12.733,12.733,0,0,0-2.923,8.413V668.6h-7.269Z"/>
          <path class="cls-5" d="M292.828,686.931a21.633,21.633,0,0,1-6.083-.829,19.688,19.688,0,0,1-5.175-2.331,16.715,16.715,0,0,1-3.989-3.556,14.969,14.969,0,0,1-2.528-4.582l6.873-2.844a10.883,10.883,0,0,0,4.108,5.451,11.515,11.515,0,0,0,6.794,2.055q5.924,0,9.242-3.555t3.318-9.8V663.23h-.316a14.3,14.3,0,0,1-5.569,4.858,16.663,16.663,0,0,1-7.623,1.778,17.112,17.112,0,0,1-13.035-5.926,21.425,21.425,0,0,1-5.372-14.693,21.138,21.138,0,0,1,5.372-14.615,17.018,17.018,0,0,1,13.035-6,16.65,16.65,0,0,1,7.623,1.777,14.306,14.306,0,0,1,5.569,4.858h.316v-5.372h6.952v37.051q0,9.321-5.293,14.615Q301.675,686.93,292.828,686.931Zm.236-23.7a11.13,11.13,0,0,0,8.77-3.871,16.047,16.047,0,0,0,0-20.145,11.186,11.186,0,0,0-8.77-3.95,11.335,11.335,0,0,0-8.769,3.95,14.43,14.43,0,0,0-3.555,10.033,14.251,14.251,0,0,0,3.555,10.033A11.335,11.335,0,0,0,293.064,663.23Z"/>
          <path class="cls-5" d="M335.883,628.629q8.058,0,12.719,4.3t4.661,11.811V668.6h-6.952V663.23H346q-4.5,6.636-12.009,6.637a15.608,15.608,0,0,1-10.7-3.793,12.106,12.106,0,0,1-4.306-9.479,11.51,11.51,0,0,1,4.543-9.56q4.541-3.554,12.126-3.555a21.46,21.46,0,0,1,10.665,2.37v-1.659a8.275,8.275,0,0,0-3-6.438,10.3,10.3,0,0,0-7.031-2.646,11.137,11.137,0,0,0-9.638,5.136l-6.4-4.029Q325.533,628.628,335.883,628.629Zm-9.4,28.123a5.8,5.8,0,0,0,2.41,4.74,8.865,8.865,0,0,0,5.648,1.9,11.583,11.583,0,0,0,8.176-3.4,10.64,10.64,0,0,0,3.595-7.979q-3.4-2.685-9.479-2.687a12.314,12.314,0,0,0-7.387,2.133A6.335,6.335,0,0,0,326.481,656.752Z"/>
          <path class="cls-5" d="M388.179,668.6h-7.268V612.039h7.268Z"/>
          <path class="cls-5" d="M398.686,629.893h6.952v5.372h.316a12.927,12.927,0,0,1,5.095-4.74,14.608,14.608,0,0,1,7.149-1.9q7.11,0,10.942,4.068t3.831,11.573V668.6H425.7V644.744q-.237-9.48-9.56-9.479a9.084,9.084,0,0,0-7.268,3.516,12.733,12.733,0,0,0-2.923,8.413V668.6h-7.269Z"/>
          <path class="cls-5" d="M471.129,657.858a10.493,10.493,0,0,1-4.424,8.532,17.487,17.487,0,0,1-11.139,3.477,17.692,17.692,0,0,1-10.271-3.042,16.753,16.753,0,0,1-6.319-8.019l6.478-2.766a12.017,12.017,0,0,0,4.147,5.412,10.078,10.078,0,0,0,5.965,1.936,10.519,10.519,0,0,0,5.807-1.5,4.26,4.26,0,0,0,2.33-3.556q0-3.712-5.688-5.451l-6.636-1.658q-11.3-2.845-11.3-10.9a10.067,10.067,0,0,1,4.306-8.492q4.305-3.2,11.021-3.2a17.91,17.91,0,0,1,9.282,2.449,13.31,13.31,0,0,1,5.807,6.557l-6.478,2.686a8.164,8.164,0,0,0-3.595-3.831,11.281,11.281,0,0,0-5.569-1.383,9.338,9.338,0,0,0-5.1,1.422A4.1,4.1,0,0,0,447.508,640q0,3.319,6.241,4.74l5.846,1.5Q471.129,649.089,471.129,657.858Z"/>
          <path class="cls-5" d="M492.774,669.234a11.044,11.044,0,0,1-7.86-2.923,10.838,10.838,0,0,1-3.2-8.138V636.528h-6.794v-6.636h6.794v-11.85h7.268v11.85h9.48v6.636h-9.48V655.8q0,3.872,1.5,5.254a4.879,4.879,0,0,0,3.4,1.382,7.3,7.3,0,0,0,1.7-.2,8.713,8.713,0,0,0,1.54-.514l2.291,6.478A19.515,19.515,0,0,1,492.774,669.234Z"/>
          <path class="cls-5" d="M515.6,616.541a5.126,5.126,0,1,1-1.5-3.633A4.953,4.953,0,0,1,515.6,616.541Zm-1.5,13.352V668.6h-7.269v-38.71Z"/>
          <path class="cls-5" d="M538.908,669.234a11.044,11.044,0,0,1-7.86-2.923,10.838,10.838,0,0,1-3.2-8.138V636.528h-6.794v-6.636h6.794v-11.85h7.268v11.85h9.48v6.636h-9.48V655.8q0,3.872,1.5,5.254a4.879,4.879,0,0,0,3.4,1.382,7.3,7.3,0,0,0,1.7-.2,8.713,8.713,0,0,0,1.54-.514l2.291,6.478A19.515,19.515,0,0,1,538.908,669.234Z"/>
          <path class="cls-5" d="M585.912,668.6h-6.951V663.23h-.316a12.922,12.922,0,0,1-5.1,4.74,14.612,14.612,0,0,1-7.149,1.9q-7.11,0-10.941-4.069t-3.831-11.573V629.893h7.268V653.75q.237,9.48,9.559,9.48a9.086,9.086,0,0,0,7.269-3.516,12.738,12.738,0,0,0,2.923-8.413V629.893h7.268Z"/>
          <path class="cls-5" d="M610.875,669.234a11.044,11.044,0,0,1-7.86-2.923,10.838,10.838,0,0,1-3.2-8.138V636.528h-6.794v-6.636h6.794v-11.85h7.268v11.85h9.48v6.636h-9.48V655.8q0,3.872,1.5,5.254a4.879,4.879,0,0,0,3.4,1.382,7.3,7.3,0,0,0,1.7-.2,8.713,8.713,0,0,0,1.54-.514l2.291,6.478A19.515,19.515,0,0,1,610.875,669.234Z"/>
          <path class="cls-5" d="M640.895,669.867a18.514,18.514,0,0,1-14.062-5.847,20.638,20.638,0,0,1-5.53-14.772,21.026,21.026,0,0,1,5.372-14.734,17.785,17.785,0,0,1,13.746-5.885q8.61,0,13.706,5.569t5.1,15.6l-.079.789H628.729a12.61,12.61,0,0,0,3.792,9.164,12.127,12.127,0,0,0,8.69,3.477q6.951,0,10.9-6.952l6.478,3.16a19.3,19.3,0,0,1-7.229,7.663A20,20,0,0,1,640.895,669.867Zm-11.612-25.281h22.2a9.636,9.636,0,0,0-3.278-6.675,11.473,11.473,0,0,0-7.939-2.646,10.532,10.532,0,0,0-7.07,2.528A12.074,12.074,0,0,0,629.282,644.586Z"/>
          <path class="cls-5" d="M681.815,649.248a20.478,20.478,0,0,1,5.609-14.773,19.12,19.12,0,0,1,14.3-5.846,18.868,18.868,0,0,1,14.22,5.846,20.324,20.324,0,0,1,5.688,14.773q0,9.006-5.688,14.772a18.865,18.865,0,0,1-14.22,5.847,19.117,19.117,0,0,1-14.3-5.847A20.474,20.474,0,0,1,681.815,649.248Zm7.269,0a14.173,14.173,0,0,0,3.634,10.111,12.411,12.411,0,0,0,18.012,0,15.776,15.776,0,0,0,0-20.145,12.241,12.241,0,0,0-18.012,0A14.065,14.065,0,0,0,689.084,649.248Z"/>
          <path class="cls-5" d="M745.332,611.406a13.749,13.749,0,0,1,6.478,1.344l-1.975,6.4a9.413,9.413,0,0,0-4.267-.947,5.673,5.673,0,0,0-4.384,1.855,7.025,7.025,0,0,0-1.7,4.938v4.9H749.6v6.636H739.485V668.6h-7.268V636.528H724.95v-6.636h7.268v-5.609a12.389,12.389,0,0,1,3.674-9.322A13.012,13.012,0,0,1,745.332,611.406Z"/>
          <path class="cls-5" d="M783.25,668.6h-7.268V612.039h7.268Z"/>
          <path class="cls-5" d="M793.756,629.893h6.952v5.372h.316a12.927,12.927,0,0,1,5.095-4.74,14.608,14.608,0,0,1,7.149-1.9q7.11,0,10.942,4.068t3.831,11.573V668.6h-7.268V644.744q-.237-9.48-9.56-9.479a9.084,9.084,0,0,0-7.268,3.516,12.733,12.733,0,0,0-2.923,8.413V668.6h-7.269Z"/>
          <path class="cls-5" d="M853.164,669.867a17.016,17.016,0,0,1-13.035-6,22.566,22.566,0,0,1,0-29.229,17.018,17.018,0,0,1,13.035-6,16.7,16.7,0,0,1,7.781,1.816,13.633,13.633,0,0,1,5.411,4.819h.316l-.316-5.372V612.039h7.269V668.6h-6.952V663.23h-.316a13.609,13.609,0,0,1-5.411,4.818A16.7,16.7,0,0,1,853.164,669.867Zm1.185-6.637a11.13,11.13,0,0,0,8.77-3.871,16.047,16.047,0,0,0,0-20.145,11.186,11.186,0,0,0-8.77-3.95,11.335,11.335,0,0,0-8.769,3.95,14.43,14.43,0,0,0-3.555,10.033,14.251,14.251,0,0,0,3.555,10.033A11.335,11.335,0,0,0,854.349,663.23Z"/>
          <path class="cls-5" d="M916.836,668.6h-6.951V663.23h-.316a12.922,12.922,0,0,1-5.1,4.74,14.612,14.612,0,0,1-7.149,1.9q-7.11,0-10.941-4.069t-3.831-11.573V629.893h7.268V653.75q.237,9.48,9.559,9.48a9.086,9.086,0,0,0,7.269-3.516,12.738,12.738,0,0,0,2.923-8.413V629.893h7.268Z"/>
          <path class="cls-5" d="M955.31,657.858a10.493,10.493,0,0,1-4.424,8.532,17.487,17.487,0,0,1-11.139,3.477,17.692,17.692,0,0,1-10.271-3.042,16.753,16.753,0,0,1-6.319-8.019l6.478-2.766a12.017,12.017,0,0,0,4.147,5.412,10.078,10.078,0,0,0,5.965,1.936,10.519,10.519,0,0,0,5.807-1.5,4.26,4.26,0,0,0,2.33-3.556q0-3.712-5.688-5.451l-6.636-1.658q-11.3-2.845-11.3-10.9a10.067,10.067,0,0,1,4.306-8.492q4.305-3.2,11.021-3.2a17.91,17.91,0,0,1,9.282,2.449,13.31,13.31,0,0,1,5.807,6.557L948.2,640.32a8.164,8.164,0,0,0-3.595-3.831,11.281,11.281,0,0,0-5.569-1.383,9.338,9.338,0,0,0-5.1,1.422A4.1,4.1,0,0,0,931.688,640q0,3.319,6.241,4.74l5.846,1.5Q955.31,649.089,955.31,657.858Z"/>
          <path class="cls-5" d="M976.956,669.234a11.044,11.044,0,0,1-7.86-2.923,10.838,10.838,0,0,1-3.2-8.138V636.528H959.1v-6.636H965.9v-11.85h7.268v11.85h9.48v6.636h-9.48V655.8q0,3.872,1.5,5.254a4.879,4.879,0,0,0,3.4,1.382,7.3,7.3,0,0,0,1.7-.2,8.713,8.713,0,0,0,1.54-.514l2.291,6.478A19.515,19.515,0,0,1,976.956,669.234Z"/>
          <path class="cls-5" d="M997.258,668.6h-7.269v-38.71h6.952v6.32h.316a10.487,10.487,0,0,1,4.542-5.254,12.616,12.616,0,0,1,6.755-2.172,13.629,13.629,0,0,1,5.372.947l-2.212,7.031a12.062,12.062,0,0,0-4.267-.553,9.4,9.4,0,0,0-7.149,3.318,11.092,11.092,0,0,0-3.041,7.741Z"/>
          <path class="cls-5" d="M1028.463,616.541a5.126,5.126,0,1,1-1.5-3.633A4.953,4.953,0,0,1,1028.463,616.541Zm-1.5,13.352V668.6h-7.269v-38.71Z"/>
          <path class="cls-5" d="M1051.135,628.629q8.058,0,12.719,4.3t4.661,11.811V668.6h-6.952V663.23h-.315q-4.5,6.636-12.009,6.637a15.608,15.608,0,0,1-10.7-3.793,12.106,12.106,0,0,1-4.306-9.479,11.51,11.51,0,0,1,4.543-9.56q4.541-3.554,12.126-3.555a21.46,21.46,0,0,1,10.665,2.37v-1.659a8.275,8.275,0,0,0-3-6.438,10.3,10.3,0,0,0-7.031-2.646,11.137,11.137,0,0,0-9.638,5.136l-6.4-4.029Q1040.785,628.628,1051.135,628.629Zm-9.4,28.123a5.8,5.8,0,0,0,2.41,4.74,8.865,8.865,0,0,0,5.648,1.9,11.583,11.583,0,0,0,8.176-3.4,10.64,10.64,0,0,0,3.595-7.979q-3.4-2.685-9.479-2.687a12.314,12.314,0,0,0-7.387,2.133A6.335,6.335,0,0,0,1041.733,656.752Z"/>
          <path class="cls-5" d="M1084.394,612.039V668.6h-7.269V612.039Z"/>
          <path class="cls-5" d="M1128.79,618.99V668.6h-7.268V618.99h-15.8v-6.951h38.867v6.951Z"/>
          <path class="cls-5" d="M1162.365,669.867a18.514,18.514,0,0,1-14.062-5.847,20.638,20.638,0,0,1-5.53-14.772,21.026,21.026,0,0,1,5.372-14.734,17.785,17.785,0,0,1,13.746-5.885q8.61,0,13.706,5.569t5.1,15.6l-.079.789H1150.2a12.61,12.61,0,0,0,3.792,9.164,12.127,12.127,0,0,0,8.69,3.477q6.951,0,10.9-6.952l6.478,3.16a19.3,19.3,0,0,1-7.229,7.663A20,20,0,0,1,1162.365,669.867Zm-11.612-25.281h22.2a9.636,9.636,0,0,0-3.278-6.675,11.473,11.473,0,0,0-7.939-2.646,10.532,10.532,0,0,0-7.07,2.528A12.074,12.074,0,0,0,1150.753,644.586Z"/>
          <path class="cls-5" d="M1205.814,669.867a19.117,19.117,0,0,1-14.3-5.847,20.822,20.822,0,0,1-5.609-14.772,20.478,20.478,0,0,1,5.609-14.773,19.12,19.12,0,0,1,14.3-5.846,17.722,17.722,0,0,1,16.985,11.139l-6.637,2.766q-3.081-7.269-10.822-7.269a11.233,11.233,0,0,0-8.611,4.028,15.714,15.714,0,0,0,0,19.908,11.231,11.231,0,0,0,8.611,4.029,11.38,11.38,0,0,0,11.218-7.268l6.478,2.765a17.341,17.341,0,0,1-6.676,8.177A18.873,18.873,0,0,1,1205.814,669.867Z"/>
          <path class="cls-5" d="M1229.751,612.039h7.269v17.854l-.316,5.372h.316a12.927,12.927,0,0,1,5.095-4.74,14.608,14.608,0,0,1,7.149-1.9q7.11,0,10.942,4.068t3.831,11.573V668.6h-7.268v-22.91q0-10.428-9.243-10.428a9.345,9.345,0,0,0-7.466,3.673,13.033,13.033,0,0,0-3.041,8.572V668.6h-7.269Z"/>
          <path class="cls-5" d="M1272.963,629.893h6.952v5.372h.316a12.927,12.927,0,0,1,5.095-4.74,14.608,14.608,0,0,1,7.149-1.9q7.11,0,10.942,4.068t3.831,11.573V668.6h-7.268V644.744q-.237-9.48-9.56-9.479a9.084,9.084,0,0,0-7.268,3.516,12.733,12.733,0,0,0-2.923,8.413V668.6h-7.269Z"/>
          <path class="cls-5" d="M1313.964,649.248a20.478,20.478,0,0,1,5.609-14.773,19.12,19.12,0,0,1,14.3-5.846,18.868,18.868,0,0,1,14.22,5.846,20.324,20.324,0,0,1,5.688,14.773q0,9.006-5.688,14.772a18.865,18.865,0,0,1-14.22,5.847,19.117,19.117,0,0,1-14.3-5.847A20.474,20.474,0,0,1,1313.964,649.248Zm7.269,0a14.173,14.173,0,0,0,3.634,10.111,12.411,12.411,0,0,0,18.012,0,15.776,15.776,0,0,0,0-20.145,12.241,12.241,0,0,0-18.012,0A14.065,14.065,0,0,0,1321.232,649.248Z"/>
          <path class="cls-5" d="M1367.685,612.039V668.6h-7.269V612.039Z"/>
          <path class="cls-5" d="M1374.32,649.248a20.478,20.478,0,0,1,5.609-14.773,19.12,19.12,0,0,1,14.3-5.846,18.868,18.868,0,0,1,14.22,5.846,20.324,20.324,0,0,1,5.688,14.773q0,9.006-5.688,14.772a18.865,18.865,0,0,1-14.22,5.847,19.117,19.117,0,0,1-14.3-5.847A20.474,20.474,0,0,1,1374.32,649.248Zm7.269,0a14.173,14.173,0,0,0,3.634,10.111,12.411,12.411,0,0,0,18.012,0,15.776,15.776,0,0,0,0-20.145,12.241,12.241,0,0,0-18.012,0A14.065,14.065,0,0,0,1381.589,649.248Z"/>
          <path class="cls-5" d="M1438.311,686.931a21.633,21.633,0,0,1-6.083-.829,19.688,19.688,0,0,1-5.175-2.331,16.715,16.715,0,0,1-3.989-3.556,14.969,14.969,0,0,1-2.528-4.582l6.873-2.844a10.883,10.883,0,0,0,4.108,5.451,11.515,11.515,0,0,0,6.794,2.055q5.924,0,9.242-3.555t3.318-9.8V663.23h-.316a14.3,14.3,0,0,1-5.569,4.858,16.663,16.663,0,0,1-7.623,1.778,17.112,17.112,0,0,1-13.035-5.926,21.425,21.425,0,0,1-5.372-14.693,21.138,21.138,0,0,1,5.372-14.615,17.018,17.018,0,0,1,13.035-6,16.65,16.65,0,0,1,7.623,1.777,14.306,14.306,0,0,1,5.569,4.858h.316v-5.372h6.952v37.051q0,9.321-5.293,14.615Q1447.157,686.93,1438.311,686.931Zm.236-23.7a11.13,11.13,0,0,0,8.77-3.871,16.047,16.047,0,0,0,0-20.145,11.186,11.186,0,0,0-8.77-3.95,11.335,11.335,0,0,0-8.769,3.95,14.43,14.43,0,0,0-3.555,10.033,14.251,14.251,0,0,0,3.555,10.033A11.335,11.335,0,0,0,1438.547,663.23Z"/>
          <path class="cls-5" d="M1501.668,629.893l-24.253,55.773h-7.506l9.007-19.513-15.958-36.261h7.9l11.534,27.809h.158l11.218-27.809Z"/>
        </g>
        <g>
          <path class="cls-5" d="M0,534.643v-107.4H32.85q24.6,0,39.525,14.85T87.3,480.941q0,24.152-14.925,38.926T32.85,534.643Zm13.8-94.2v81H32.85q18.749,0,29.55-10.725t10.8-29.775q0-18.9-10.8-29.7t-29.55-10.8Z"/>
          <path class="cls-5" d="M133.05,537.042q-16.2,0-26.7-11.1t-10.5-28.049q0-16.8,10.2-27.976t26.1-11.175q16.348,0,26.025,10.574t9.675,29.625l-.15,1.5h-57.75q.3,10.8,7.2,17.4a23.023,23.023,0,0,0,16.5,6.6q13.2,0,20.7-13.2l12.3,6a36.648,36.648,0,0,1-13.725,14.55A37.972,37.972,0,0,1,133.05,537.042Zm-22.05-48h42.15a18.3,18.3,0,0,0-6.225-12.675q-5.625-5.024-15.075-5.025a20.007,20.007,0,0,0-13.425,4.8A22.928,22.928,0,0,0,111,489.042Z"/>
          <path class="cls-5" d="M215.7,534.643H201.9l-29.7-73.5h15l21.6,57h.3l21.9-57h14.7Z"/>
          <path class="cls-5" d="M286.5,537.042q-16.2,0-26.7-11.1t-10.5-28.049q0-16.8,10.2-27.976t26.1-11.175q16.348,0,26.025,10.574t9.675,29.625l-.15,1.5H263.4q.3,10.8,7.2,17.4a23.023,23.023,0,0,0,16.5,6.6q13.2,0,20.7-13.2l12.3,6a36.648,36.648,0,0,1-13.725,14.55A37.972,37.972,0,0,1,286.5,537.042Zm-22.051-48H306.6a18.3,18.3,0,0,0-6.225-12.675q-5.625-5.024-15.075-5.025a20.006,20.006,0,0,0-13.425,4.8A22.932,22.932,0,0,0,264.447,489.042Z"/>
          <path class="cls-5" d="M348.747,427.242v107.4h-13.8v-107.4Z"/>
          <path class="cls-5" d="M361.647,497.893q0-16.95,10.649-28.051,10.8-11.1,27.15-11.1t27,11.1q10.8,11.1,10.8,28.051,0,17.1-10.8,28.049-10.652,11.1-27,11.1t-27.15-11.1Q361.645,514.844,361.647,497.893Zm13.8,0q0,11.851,6.9,19.2a23.567,23.567,0,0,0,34.2,0q6.9-7.348,6.9-19.2,0-11.7-6.9-19.051a23.243,23.243,0,0,0-34.2,0Q375.445,486.192,375.447,497.893Z"/>
          <path class="cls-5" d="M488.4,537.042a31.7,31.7,0,0,1-14.775-3.45,25.82,25.82,0,0,1-10.275-9.15h-.6l.6,10.2v32.4h-13.8v-105.9h13.2v10.2h.6a25.878,25.878,0,0,1,10.275-9.15,31.7,31.7,0,0,1,14.775-3.449q14.547,0,24.6,11.4a40.145,40.145,0,0,1,10.35,27.75q0,16.351-10.35,27.75Q502.947,537.042,488.4,537.042Zm-2.25-12.6a21.513,21.513,0,0,0,16.649-7.5q6.75-7.348,6.75-19.049,0-11.549-6.75-19.051a22.4,22.4,0,0,0-33.45,0q-6.6,7.5-6.6,19.051,0,11.7,6.6,19.2A21.874,21.874,0,0,0,486.149,524.441Z"/>
          <path class="cls-5" d="M570,537.042q-16.2,0-26.7-11.1t-10.5-28.049q0-16.8,10.2-27.976t26.1-11.175q16.348,0,26.025,10.574t9.675,29.625l-.15,1.5H546.9q.3,10.8,7.2,17.4a23.023,23.023,0,0,0,16.5,6.6q13.2,0,20.7-13.2l12.3,6a36.648,36.648,0,0,1-13.725,14.55A37.972,37.972,0,0,1,570,537.042Zm-22.051-48H590.1a18.3,18.3,0,0,0-6.225-12.675q-5.625-5.024-15.075-5.025a20.006,20.006,0,0,0-13.425,4.8A22.932,22.932,0,0,0,547.947,489.042Z"/>
          <path class="cls-5" d="M632.247,534.643h-13.8v-73.5h13.2v12h.6q2.1-5.851,8.625-9.976a23.944,23.944,0,0,1,12.825-4.125,25.876,25.876,0,0,1,10.2,1.8l-4.2,13.35q-2.553-1.046-8.1-1.049-7.8,0-13.575,6.3a21.073,21.073,0,0,0-5.774,14.7Z"/>
          <path class="cls-5" d="M772.193,505.992q0,14.1-10.35,22.65-10.5,8.4-25.5,8.4a37.688,37.688,0,0,1-23.55-7.8q-10.2-7.8-14.1-21.3l13.2-5.4a34.09,34.09,0,0,0,3.75,8.7,28.136,28.136,0,0,0,5.625,6.675,25.449,25.449,0,0,0,7.125,4.351,21.838,21.838,0,0,0,8.25,1.574q9.45,0,15.45-4.875a15.876,15.876,0,0,0,6-12.975,15.517,15.517,0,0,0-4.95-11.551q-4.651-4.646-17.4-9-12.9-4.646-16.051-6.3-17.1-8.7-17.1-25.65,0-11.848,9.45-20.25,9.6-8.4,23.55-8.4,12.3,0,21.3,6.3a29.506,29.506,0,0,1,12,15.449l-12.9,5.4a19.094,19.094,0,0,0-7.125-9.975,23.053,23.053,0,0,0-26.625.524,13.107,13.107,0,0,0-5.551,10.95,12.684,12.684,0,0,0,4.351,9.6q4.8,4.05,20.85,9.6,16.348,5.552,23.325,13.576T772.193,505.992Z"/>
          <path class="cls-5" d="M812.844,535.842a20.973,20.973,0,0,1-14.925-5.55q-5.928-5.547-6.075-15.45v-41.1h-12.9v-12.6h12.9v-22.5h13.8v22.5h18v12.6h-18v36.6q0,7.351,2.851,9.975a9.257,9.257,0,0,0,6.449,2.625,13.777,13.777,0,0,0,3.226-.375,16.548,16.548,0,0,0,2.925-.975l4.35,12.3A37.11,37.11,0,0,1,812.844,535.842Z"/>
          <path class="cls-5" d="M902.393,534.643h-13.2v-10.2h-.6a24.524,24.524,0,0,1-9.675,9,27.731,27.731,0,0,1-13.575,3.6q-13.5,0-20.774-7.726t-7.275-21.975v-46.2h13.8v45.3q.451,18,18.15,18a17.249,17.249,0,0,0,13.8-6.674,24.187,24.187,0,0,0,5.55-15.976V461.143h13.8Z"/>
          <path class="cls-5" d="M950.243,537.042q-14.4,0-24.75-11.4-10.2-11.549-10.2-27.75t10.2-27.75q10.349-11.4,24.75-11.4a31.709,31.709,0,0,1,14.774,3.449,25.9,25.9,0,0,1,10.275,9.15h.6l-.6-10.2v-33.9h13.8v107.4h-13.2v-10.2h-.6a25.839,25.839,0,0,1-10.275,9.15A31.709,31.709,0,0,1,950.243,537.042Zm2.25-12.6a21.131,21.131,0,0,0,16.649-7.35q6.75-7.348,6.75-19.2,0-11.549-6.75-19.051a21.236,21.236,0,0,0-16.649-7.5,21.523,21.523,0,0,0-16.65,7.5q-6.75,7.5-6.75,19.051,0,11.7,6.75,19.049A21.513,21.513,0,0,0,952.493,524.441Z"/>
          <path class="cls-5" d="M1039.192,537.042q-16.2,0-26.7-11.1t-10.5-28.049q0-16.8,10.2-27.976t26.1-11.175q16.348,0,26.025,10.574t9.675,29.625l-.15,1.5h-57.75q.3,10.8,7.2,17.4a23.023,23.023,0,0,0,16.5,6.6q13.2,0,20.7-13.2l12.3,6a36.648,36.648,0,0,1-13.725,14.55A37.972,37.972,0,0,1,1039.192,537.042Zm-22.051-48h42.15a18.3,18.3,0,0,0-6.225-12.675q-5.625-5.024-15.075-5.025a20.006,20.006,0,0,0-13.425,4.8A22.932,22.932,0,0,0,1017.142,489.042Z"/>
          <path class="cls-5" d="M1087.642,461.143h13.2v10.2h.6a24.544,24.544,0,0,1,9.675-9,27.721,27.721,0,0,1,13.575-3.6q13.5,0,20.774,7.725t7.275,21.975v46.2h-13.8v-45.3q-.45-18-18.15-18a17.247,17.247,0,0,0-13.8,6.676,24.176,24.176,0,0,0-5.55,15.975v40.65h-13.8Z"/>
          <path class="cls-5" d="M1195.342,535.842a20.973,20.973,0,0,1-14.925-5.55q-5.928-5.547-6.075-15.45v-41.1h-12.9v-12.6h12.9v-22.5h13.8v22.5h18v12.6h-18v36.6q0,7.351,2.851,9.975a9.257,9.257,0,0,0,6.449,2.625,13.777,13.777,0,0,0,3.226-.375,16.548,16.548,0,0,0,2.925-.975l4.35,12.3A37.11,37.11,0,0,1,1195.342,535.842Z"/>
          <path class="cls-5" d="M1304.389,537.042q-23.849,0-39.9-16.05-15.9-16.049-15.9-40.051t15.9-39.9q15.9-16.2,39.9-16.2,24.3,0,39.45,17.551l-9.9,9.6q-11.553-13.951-29.551-13.95-17.852,0-29.85,12-11.851,11.852-11.85,30.9t11.85,30.9q12,12,29.85,12,18.75,0,32.551-15.75l10.05,9.75a52.092,52.092,0,0,1-18.75,14.176A57.181,57.181,0,0,1,1304.389,537.042Z"/>
          <path class="cls-5" d="M1374.139,427.242v107.4h-13.8v-107.4Z"/>
          <path class="cls-5" d="M1456.488,534.643h-13.2v-10.2h-.6a24.524,24.524,0,0,1-9.675,9,27.731,27.731,0,0,1-13.575,3.6q-13.5,0-20.774-7.726t-7.275-21.975v-46.2h13.8v45.3q.451,18,18.15,18a17.249,17.249,0,0,0,13.8-6.674,24.187,24.187,0,0,0,5.55-15.976V461.143h13.8Z"/>
          <path class="cls-5" d="M1513.187,537.042a31.708,31.708,0,0,1-14.775-3.45,25.817,25.817,0,0,1-10.274-9.15h-.6v10.2h-13.2v-107.4h13.8v33.9l-.6,10.2h.6a25.875,25.875,0,0,1,10.274-9.15,31.707,31.707,0,0,1,14.775-3.449q14.547,0,24.6,11.4a40.146,40.146,0,0,1,10.351,27.75q0,16.351-10.351,27.75Q1527.736,537.042,1513.187,537.042Zm-2.25-12.6a21.515,21.515,0,0,0,16.65-7.5q6.75-7.348,6.75-19.049,0-11.549-6.75-19.051a22.4,22.4,0,0,0-33.45,0q-6.6,7.5-6.6,19.051,0,11.7,6.6,19.2A21.872,21.872,0,0,0,1510.937,524.441Z"/>
          <path class="cls-5" d="M1617.286,514.242q0,9.6-8.4,16.2t-21.15,6.6a33.589,33.589,0,0,1-19.5-5.774,31.834,31.834,0,0,1-12-15.226l12.3-5.25a22.814,22.814,0,0,0,7.875,10.274,19.122,19.122,0,0,0,11.324,3.676,19.97,19.97,0,0,0,11.025-2.85q4.422-2.848,4.425-6.75,0-7.049-10.8-10.351l-12.6-3.149q-21.453-5.4-21.45-20.7a19.118,19.118,0,0,1,8.175-16.125q8.174-6.073,20.925-6.074a34.016,34.016,0,0,1,17.625,4.65,25.278,25.278,0,0,1,11.025,12.449l-12.3,5.1a15.515,15.515,0,0,0-6.825-7.274,21.414,21.414,0,0,0-10.575-2.625,17.728,17.728,0,0,0-9.675,2.7q-4.276,2.7-4.275,6.6,0,6.3,11.851,9l11.1,2.85Q1617.285,497.592,1617.286,514.242Z"/>
        </g>
      </g>
    </g>
  </g>
</svg>
